<?xml version="1.0" standalone="no"?>
<!DOCTYPE svg PUBLIC "-//W3C//DTD SVG 20010904//EN"
 "http://www.w3.org/TR/2001/REC-SVG-20010904/DTD/svg10.dtd">
<svg version="1.0" xmlns="http://www.w3.org/2000/svg"
 width="1280.000000pt" height="986.000000pt" viewBox="0 0 1280.000000 986.000000"
 preserveAspectRatio="xMidYMid meet">

<g transform="translate(0.000000,986.000000) scale(0.100000,-0.100000)"
fill="#000000" stroke="none">
<path d="M9700 3652 c-17 -106 -83 -267 -164 -395 -61 -97 -75 -137 -48 -137
13 0 103 141 150 235 77 154 125 354 89 368 -11 4 -17 -12 -27 -71z"/>
<path d="M9571 3588 c-29 -61 -61 -157 -61 -185 0 -46 28 -24 45 35 9 31 32
87 50 125 l33 67 -23 0 c-17 0 -28 -11 -44 -42z"/>
<path d="M2275 3380 c-6 -19 -119 -134 -190 -193 -16 -14 -26 -29 -22 -33 10
-10 56 17 135 79 69 55 112 109 112 144 0 29 -26 30 -35 3z"/>
<path d="M8194 3316 c-15 -30 -29 -44 -54 -52 -19 -6 -36 -16 -38 -22 -5 -17
46 -26 74 -13 30 13 64 67 64 102 0 39 -24 31 -46 -15z"/>
<path d="M9197 3322 c-23 -25 -21 -32 8 -32 21 0 45 24 45 44 0 14 -38 5 -53
-12z"/>
<path d="M2044 3278 c-52 -28 -95 -60 -180 -135 -129 -113 -227 -253 -274
-388 -24 -68 -25 -101 -6 -108 10 -4 17 8 25 40 45 177 206 383 409 523 50 35
92 67 92 71 0 17 -31 16 -66 -3z"/>
<path d="M3085 3253 c-13 -26 -35 -45 -65 -59 l-45 -22 27 -12 c39 -19 84 2
109 51 37 73 12 113 -26 42z"/>
<path d="M7381 3264 c-25 -31 -27 -64 -6 -64 16 0 55 55 55 78 0 21 -28 13
-49 -14z"/>
<path d="M9019 3211 c-115 -77 -189 -162 -189 -218 0 -23 5 -33 15 -33 8 0 15
8 15 18 0 33 56 98 145 167 79 62 95 83 69 92 -6 2 -30 -10 -55 -26z"/>
<path d="M8643 3222 c-6 -4 -23 -33 -37 -66 -14 -32 -39 -74 -56 -92 -34 -40
-38 -54 -12 -54 27 0 68 48 97 114 26 59 31 112 8 98z"/>
<path d="M9177 3148 c-40 -78 -45 -103 -23 -111 9 -4 26 22 55 81 22 48 41 91
41 95 0 4 -8 7 -18 7 -12 0 -30 -24 -55 -72z"/>
<path d="M5530 3122 c-73 -52 -166 -147 -153 -155 5 -3 29 10 53 30 25 19 75
55 113 80 51 35 67 51 67 69 0 13 -3 24 -7 23 -5 0 -37 -21 -73 -47z"/>
<path d="M6004 3131 c-28 -165 -105 -341 -219 -505 -19 -26 -19 -56 -1 -56 19
0 110 143 166 265 47 100 73 184 85 281 5 42 4 51 -9 51 -10 0 -18 -13 -22
-36z"/>
<path d="M3925 3119 c-24 -22 -53 -60 -65 -83 -24 -51 -28 -136 -5 -136 9 0
15 9 15 23 0 51 23 99 75 156 30 32 55 64 55 70 0 22 -32 10 -75 -30z"/>
<path d="M4155 3152 c-12 -8 -39 -131 -31 -139 14 -15 35 11 41 50 8 55 3 99
-10 89z"/>
<path d="M7412 3153 c-8 -3 -27 -34 -42 -68 -28 -62 -29 -64 -75 -70 -25 -4
-52 -14 -60 -21 -33 -34 -89 -231 -75 -268 12 -34 30 -30 30 6 0 28 35 147 65
221 5 11 18 17 42 17 54 0 72 16 109 96 43 94 43 102 6 87z"/>
<path d="M3680 3144 c-8 -3 -33 -44 -55 -92 -21 -48 -54 -118 -71 -157 -18
-38 -30 -73 -28 -77 15 -25 38 6 97 135 55 119 86 201 75 196 -2 -1 -10 -3
-18 -5z"/>
<path d="M8102 3086 c-17 -35 -48 -89 -70 -118 -49 -66 -60 -104 -33 -111 14
-3 21 2 25 17 3 12 24 46 46 76 45 60 78 127 82 167 6 49 -20 34 -50 -31z"/>
<path d="M3383 3081 c-18 -32 -57 -89 -88 -126 -30 -37 -55 -76 -55 -86 0 -21
22 -38 28 -21 2 6 30 43 62 83 56 69 120 174 120 198 0 6 -8 11 -17 11 -11 0
-30 -22 -50 -59z"/>
<path d="M5290 3097 c-120 -36 -287 -143 -329 -211 -45 -73 -15 -75 54 -5 89
91 206 157 333 188 46 11 67 21 67 31 0 23 -42 22 -125 -3z"/>
<path d="M9705 3068 c-84 -129 -149 -188 -207 -188 -31 0 -41 -9 -27 -27 19
-22 72 -15 121 16 56 36 168 189 168 231 0 24 -29 7 -55 -32z"/>
<path d="M3023 3072 c-6 -4 -21 -29 -32 -55 -11 -26 -39 -72 -61 -102 -52 -70
-68 -113 -49 -126 21 -13 29 -11 29 7 0 9 20 44 44 78 24 33 53 80 65 104 23
45 26 108 4 94z"/>
<path d="M5867 3028 c-25 -52 -67 -173 -67 -190 0 -5 7 -8 15 -6 9 2 34 49 61
113 25 61 47 116 50 123 4 7 -2 12 -14 12 -15 0 -27 -14 -45 -52z"/>
<path d="M8412 3016 c-43 -45 -62 -72 -62 -90 0 -33 27 -35 39 -3 5 12 34 47
65 77 31 30 56 60 56 67 0 30 -41 9 -98 -51z"/>
<path d="M2249 3062 c-11 -2 -34 -48 -65 -130 -27 -70 -65 -167 -86 -217 -34
-83 -37 -118 -8 -100 6 4 22 32 36 63 37 83 145 373 142 381 -2 4 -10 5 -19 3z"/>
<path d="M7740 2989 c-39 -60 -80 -155 -80 -185 0 -33 33 -7 50 39 10 27 37
77 60 113 39 59 46 94 20 94 -6 0 -28 -27 -50 -61z"/>
<path d="M9296 2981 c-69 -84 -135 -146 -167 -156 -12 -4 -29 -14 -36 -21 -12
-11 -10 -14 12 -20 55 -14 136 50 229 180 42 59 51 86 27 86 -5 0 -34 -31 -65
-69z"/>
<path d="M2665 2992 c-18 -12 -77 -111 -101 -170 -28 -67 -30 -92 -9 -92 9 0
18 8 21 18 12 39 48 110 80 159 25 37 32 57 26 72 -4 11 -12 17 -17 13z"/>
<path d="M4186 2960 c-19 -17 -54 -37 -78 -46 -30 -10 -53 -28 -76 -60 -42
-57 -87 -85 -132 -83 -19 0 -44 0 -55 0 -19 -2 -19 -3 4 -21 28 -24 90 -26
130 -5 28 14 111 101 111 115 0 4 16 11 36 15 38 7 124 77 124 101 0 23 -27
16 -64 -16z"/>
<path d="M7041 2963 c-12 -14 -19 -28 -17 -30 10 -10 101 25 104 41 6 29 -62
21 -87 -11z"/>
<path d="M6875 2923 c-10 -27 -35 -73 -57 -103 -37 -53 -37 -55 -16 -58 15 -3
30 6 49 30 29 35 69 127 69 159 0 36 -27 19 -45 -28z"/>
<path d="M8968 2906 c-26 -36 -65 -77 -88 -91 -44 -28 -45 -45 -1 -45 18 0 38
12 63 38 36 38 118 147 118 157 0 3 -10 5 -23 5 -16 0 -35 -18 -69 -64z"/>
<path d="M7543 2948 c-12 -6 -30 -31 -39 -55 -27 -69 -71 -133 -93 -133 -12 0
-46 -34 -94 -93 -74 -92 -152 -157 -189 -157 -11 0 -26 -6 -33 -14 -12 -12
-12 -15 1 -20 31 -12 68 -5 110 19 42 25 132 122 181 197 16 24 33 38 47 38
21 0 76 76 104 142 6 15 29 36 52 48 22 11 40 25 40 30 0 13 -59 12 -87 -2z"/>
<path d="M8624 2847 c-97 -109 -137 -137 -201 -137 -46 0 -57 -8 -42 -27 7 -7
31 -13 58 -13 76 0 133 44 259 198 56 69 62 82 35 82 -10 0 -59 -46 -109 -103z"/>
<path d="M3712 2902 c-72 -72 -370 -580 -348 -594 16 -11 40 8 60 49 53 104
158 282 240 407 50 76 90 141 89 144 -4 15 -23 12 -41 -6z"/>
<path d="M2429 2889 c-19 -7 -34 -27 -53 -72 -32 -75 -53 -102 -86 -110 -14
-4 -99 -81 -190 -175 -154 -157 -170 -177 -245 -306 -77 -133 -88 -145 -154
-176 -39 -18 -15 -42 32 -33 50 10 120 102 216 283 13 25 81 104 151 175 71
72 141 145 155 163 17 20 36 32 51 32 28 0 75 58 106 130 15 35 27 49 58 62
22 9 40 21 40 27 0 13 -45 13 -81 0z"/>
<path d="M6458 2880 c-10 -9 -18 -22 -18 -29 0 -40 -130 -178 -212 -223 -46
-25 -63 -58 -30 -58 28 0 151 90 210 154 51 57 77 113 70 152 -3 20 -4 20 -20
4z"/>
<path d="M8186 2806 c-78 -106 -116 -131 -204 -135 -23 -1 -7 -24 21 -32 65
-17 142 33 213 139 22 31 45 62 53 68 16 12 7 34 -14 34 -8 0 -39 -33 -69 -74z"/>
<path d="M6293 2851 c-35 -22 -88 -94 -99 -134 -10 -42 21 -34 51 13 14 23 44
58 66 80 22 22 38 44 34 50 -9 14 -15 13 -52 -9z"/>
<path d="M5488 2803 c-10 -10 -30 -32 -45 -50 -20 -22 -49 -38 -98 -54 -206
-65 -411 -224 -440 -341 -6 -24 -4 -28 13 -28 13 0 24 10 30 30 33 92 235 241
402 295 94 30 125 50 144 93 10 22 16 47 14 57 -3 15 -4 15 -20 -2z"/>
<path d="M6672 2766 c-55 -58 -74 -102 -51 -117 10 -6 19 1 30 24 10 18 40 53
68 79 56 52 63 68 27 68 -15 0 -40 -18 -74 -54z"/>
<path d="M7795 2745 c-65 -81 -103 -114 -144 -124 -30 -8 -35 -34 -8 -39 30
-6 63 6 96 34 28 23 161 188 161 199 0 3 -10 5 -22 5 -16 -1 -41 -23 -83 -75z"/>
<path d="M1845 2669 c-146 -146 -175 -169 -222 -169 -15 0 -38 -3 -51 -6 l-23
-7 21 -14 c27 -19 90 -19 127 1 27 14 261 244 302 297 20 26 19 39 -3 39 -6 0
-74 -63 -151 -141z"/>
<path d="M3091 2763 c-66 -103 -124 -153 -176 -153 -16 0 -37 -5 -45 -10 -13
-9 -13 -11 0 -20 8 -5 33 -10 56 -10 55 0 109 40 170 127 27 37 54 74 61 81
16 17 8 32 -17 32 -10 0 -30 -19 -49 -47z"/>
<path d="M3341 2739 c-18 -22 -45 -46 -60 -52 -48 -21 -50 -47 -3 -47 19 0 42
16 84 61 32 33 58 65 58 70 0 5 -10 9 -22 9 -14 0 -36 -16 -57 -41z"/>
<path d="M2738 2758 c-8 -7 -38 -41 -66 -75 -76 -94 -87 -104 -129 -118 -21
-7 -38 -19 -38 -27 0 -23 58 -21 95 4 33 23 180 201 180 219 0 13 -24 11 -42
-3z"/>
<path d="M4909 2734 c-19 -23 36 -38 139 -38 71 -1 95 2 102 14 14 23 -7 29
-79 23 -36 -3 -85 0 -108 5 -33 8 -45 7 -54 -4z"/>
<path d="M7000 2703 c-16 -3 -50 -34 -99 -92 -110 -131 -159 -165 -230 -159
-42 4 -51 -14 -16 -30 80 -36 165 16 293 180 32 40 62 68 75 70 12 2 22 9 22
17 0 17 -10 20 -45 14z"/>
<path d="M6449 2553 c-100 -128 -175 -178 -260 -171 -48 4 -46 -23 3 -35 62
-15 136 13 200 76 46 45 148 178 148 192 0 3 -9 5 -19 5 -12 0 -40 -26 -72
-67z"/>
<path d="M5965 2461 c-72 -98 -101 -122 -159 -131 -46 -6 -58 -26 -22 -36 74
-18 138 26 223 154 71 107 69 102 44 102 -14 0 -40 -27 -86 -89z"/>
<path d="M5577 2530 c-3 -8 -8 -33 -12 -55 -21 -124 -154 -236 -385 -320 -61
-23 -93 -28 -170 -29 -52 -1 -106 1 -119 4 -31 6 -39 -15 -12 -30 68 -36 179
-31 319 16 230 77 389 214 397 342 3 51 -9 99 -18 72z"/>
</g>
</svg>
